<?xml version="1.0" encoding="utf-8"?>
<svg version="1.1" id="Layer_1" xmlns="http://www.w3.org/2000/svg" x="0px" y="0px" width="46" enable-background="new 0 0 1254 1254" height="46" viewBox="14.28 10.124 17.395 16.431" xmlns:bx="https://boxy-svg.com" preserveAspectRatio="none"><defs><bx:export><bx:file format="svg"/></bx:export></defs><path fill="#2B3D4C" opacity="1.000000" stroke="none" d="M24.132 23.653c0 -0.187 0.013 -0.363 0.013 -0.539l0.001 -5.917c0 -0.079 0.009 -0.157 0.022 -0.25 0.767 0.631 1.524 1.278 2.283 1.923l0.923 0.783c0.33 0.279 0.818 0.273 1.147 -0.005q1.178 -0.993 2.354 -1.987c0.164 -0.138 0.345 -0.187 0.543 -0.095 0.195 0.089 0.254 0.261 0.254 0.468 -0.001 2.207 0.004 4.413 -0.004 6.62 -0.004 1.104 -0.837 1.917 -1.936 1.918l-1.742 0.001a1.227 1.227 0 0 1 -0.827 -0.298l-2.989 -2.57c-0.014 -0.011 -0.024 -0.027 -0.043 -0.05" stroke-width="0.036682615629984046"/><path fill="#0A8C62" opacity="1.000000" stroke="none" d="M 17.059 19.334 C 17.08 19.332 17.788 18.531 18.453 18.816 C 19.849 19.414 21.77 21.353 21.77 21.353 C 21.651 21.485 18.308 24.919 17.145 26.078 C 16.46 26.777 15.318 26.722 14.703 25.96 C 14.404 25.599 14.259 25.135 14.298 24.668" stroke-width="0.036682615629984046"/><path fill="#2CB884" opacity="1.000000" stroke="none" d="M 24.126 23.643 L 22.879 22.575 L 21.687 21.548 C 21.369 21.262 21.07 20.984 20.764 20.717 C 20.138 20.169 19.499 19.633 18.879 19.078 C 18.422 18.668 17.406 18.681 17.155 19.487 C 16.993 19.782 16.841 20.07 16.678 20.365 C 16.117 21.387 15.568 22.403 15.013 23.418 C 14.832 23.746 14.5 24.367 14.301 24.685 C 14.26 24.624 14.33 11.426 14.305 11.339 C 14.448 10.364 15.541 9.804 16.379 10.296 C 16.66 10.461 16.896 10.702 17.147 10.916 L 23.954 16.711 C 24.032 16.778 24.101 16.854 24.161 16.938 C 24.152 17.041 24.143 17.121 24.143 17.2 L 24.142 23.117 C 24.142 23.293 24.129 23.47 24.123 23.646" stroke-width="0.036682615629984046"/><path fill="#2B3D4C" opacity="1.000000" stroke="none" d="M 29.375 12.481 L 29.376 10.704 C 29.377 10.308 29.632 10.054 30.03 10.052 C 30.367 10.051 30.703 10.052 31.038 10.053 C 31.463 10.053 31.722 10.306 31.722 10.737 C 31.724 12.326 31.724 13.914 31.722 15.502 C 31.724 15.643 31.724 15.783 31.721 15.924 C 31.731 16.28 31.436 16.57 31.08 16.554 C 30.725 16.557 30.371 16.556 30.017 16.553 C 29.627 16.549 29.376 16.297 29.374 15.909 C 29.373 14.773 29.374 13.637 29.375 12.482" stroke-width="0.036682615629984046"/><path fill="#40C18C" opacity="1.000000" stroke="none" d="M 28.578 15.834 C 28.481 16.213 28.282 16.371 27.908 16.373 C 27.579 16.375 27.249 16.374 26.919 16.372 C 26.55 16.368 26.295 16.119 26.293 15.751 C 26.29 14.798 26.29 13.846 26.293 12.894 C 26.286 12.551 26.565 12.27 26.908 12.276 C 27.25 12.27 27.592 12.273 27.934 12.276 C 28.297 12.262 28.595 12.562 28.578 12.926 C 28.581 13.891 28.579 14.855 28.578 15.835" stroke-width="0.036682615629984046"/></svg>